<svg width="220" height="260" viewBox="0 0 220 260" fill="none" xmlns="http://www.w3.org/2000/svg" role="img" aria-labelledby="title desc">
  <title id="title">Minh hoạ quản lý học sinh</title>
  <desc id="desc">Giáo viên ngồi làm việc với laptop, bảng xanh và biểu tượng báo cáo học sinh.</desc>
  <rect width="220" height="260" rx="24" fill="#FFFFFF"/>
  <circle cx="33" cy="75" r="54" fill="#DBEAFE"/>
  <circle cx="177" cy="207" r="70" fill="#EFF6FF"/>
  <path d="M56 54c9-11 25-15 40-8" stroke="#60A5FA" stroke-width="2" stroke-linecap="round" stroke-dasharray="5 6"/>
  <path d="M96 41l33-11-18 35-6-15-14-9 5 0z" fill="#EFF6FF" stroke="#0A66C2" stroke-width="3" stroke-linejoin="round"/>
  <rect x="15" y="74" width="64" height="92" rx="4" fill="#955F30"/>
  <rect x="20" y="80" width="54" height="79" rx="3" fill="#1F6F60"/>
  <path d="M29 112c11-10 25-15 36-14" stroke="#2F8A78" stroke-width="5" stroke-linecap="round" opacity=".55"/>
  <rect x="102" y="59" width="95" height="61" rx="21" fill="#FFFFFF" stroke="#0A66C2" stroke-width="4"/>
  <text x="149" y="86" text-anchor="middle" font-family="Arial, sans-serif" font-size="20" font-weight="800" fill="#0A66C2">BÁO</text>
  <text x="149" y="108" text-anchor="middle" font-family="Arial, sans-serif" font-size="20" font-weight="800" fill="#0A66C2">CÁO</text>
  <rect x="170" y="75" width="18" height="31" rx="3" fill="#DBEAFE" stroke="#0A66C2" stroke-width="3"/>
  <path d="M175 91l4 4 7-9" stroke="#0A66C2" stroke-width="3" stroke-linecap="round" stroke-linejoin="round"/>
  <circle cx="79" cy="124" r="28" fill="#F4C7A1"/>
  <path d="M54 118c3-27 41-36 57-13 5 8 4 19 1 28-7-19-20-27-43-20-5 1-10 3-15 5z" fill="#2B1B13"/>
  <path d="M57 147c11 13 38 14 50 0 13 7 22 21 22 39v38H36v-38c0-18 8-32 21-39z" fill="#F8FAFC"/>
  <path d="M37 222h95v12H37v-12z" fill="#2563EB" opacity=".9"/>
  <rect x="125" y="174" width="69" height="45" rx="6" fill="#CBD5E1" stroke="#94A3B8" stroke-width="3"/>
  <path d="M49 199c14-10 32-10 48 0" stroke="#D9A06E" stroke-width="9" stroke-linecap="round"/>
  <rect x="8" y="225" width="204" height="22" rx="6" fill="#C68642"/>
  <path d="M10 235h200" stroke="#A16207" stroke-width="3" opacity=".45"/>
  <rect x="19" y="202" width="40" height="9" rx="2" fill="#3B82F6"/>
  <rect x="15" y="211" width="45" height="9" rx="2" fill="#F97316"/>
  <rect x="18" y="193" width="42" height="9" rx="2" fill="#84CC16"/>
  <circle cx="180" cy="156" r="18" fill="#DBEAFE"/>
  <path d="M170 162h20M174 155h12M178 148h4" stroke="#0A66C2" stroke-width="4" stroke-linecap="round"/>
</svg>
